<?xml version="1.0" standalone="no"?>
<!DOCTYPE svg PUBLIC "-//W3C//DTD SVG 20010904//EN"
 "http://www.w3.org/TR/2001/REC-SVG-20010904/DTD/svg10.dtd">
<svg version="1.0" xmlns="http://www.w3.org/2000/svg"
 width="1024.000000pt" height="1024.000000pt" viewBox="0 0 1024.000000 1024.000000"
 preserveAspectRatio="xMidYMid meet">

<g transform="translate(0.000000,1024.000000) scale(0.100000,-0.100000)"
fill="#000000" stroke="none">
<path d="M0 5120 l0 -5120 850 0 c532 0 850 4 850 10 0 6 10 6 26 0 14 -6 27
-10 30 -10 2 0 4 2304 4 5120 l0 5119 -222 -1 c-123 -1 -214 -4 -204 -6 11 -2
26 -10 34 -18 11 -12 11 -15 0 -19 -16 -6 -14 -88 1 -93 5 -2 7 -12 4 -22 -3
-11 -1 -20 5 -20 6 0 9 -26 7 -67 -3 -38 -5 -104 -6 -148 -1 -44 -6 -82 -10
-85 -4 -3 -9 -25 -10 -48 -2 -31 -7 -41 -16 -38 -11 4 -11 1 -2 -15 8 -15 8
-19 0 -15 -6 4 -11 2 -11 -3 0 -6 4 -11 9 -11 6 0 6 -12 2 -27 -5 -16 -6 -38
-5 -51 3 -15 0 -21 -7 -16 -6 3 -9 17 -7 29 3 16 1 22 -8 18 -7 -2 -10 -12 -7
-21 4 -14 3 -15 -6 -2 -6 9 -10 132 -10 345 -1 220 2 325 9 315 8 -13 10 -12
10 3 0 16 -38 17 -655 17 l-655 0 0 -5120z m1568 5091 c12 0 22 -5 22 -11 0
-5 -7 -7 -15 -4 -19 8 -19 -10 0 -29 11 -12 12 -17 2 -20 -15 -6 5 -43 22 -39
16 3 13 -14 -5 -29 -14 -11 -14 -13 0 -21 9 -5 16 -14 16 -21 0 -8 -4 -6 -11
3 -8 11 -9 5 -3 -25 4 -22 7 -57 8 -78 0 -21 6 -41 12 -45 6 -4 10 -15 8 -24
-1 -10 2 -20 6 -23 5 -3 6 -22 3 -43 -3 -20 -5 -43 -6 -50 0 -7 -7 -10 -14 -7
-19 7 -16 -60 4 -93 10 -17 11 -22 1 -20 -7 2 -14 -8 -16 -21 -3 -17 0 -21 10
-16 10 6 11 5 1 -6 -15 -16 -17 -43 -3 -34 6 3 10 -1 10 -9 0 -9 -4 -16 -10
-16 -5 0 -10 -7 -10 -16 0 -8 4 -13 8 -10 4 2 9 -4 9 -15 1 -11 -1 -18 -5 -15
-4 2 -8 -30 -10 -72 -2 -42 -7 -81 -11 -87 -9 -11 -8 -51 1 -61 4 -3 4 -12 1
-20 -3 -8 0 -14 6 -14 11 0 9 -42 -4 -73 -4 -10 -4 -17 1 -16 20 3 28 -2 15
-10 -17 -11 -18 -128 -2 -144 15 -15 14 -27 -4 -27 -16 0 -20 -12 -8 -23 3 -4
13 -1 22 5 10 8 9 5 -3 -9 -14 -17 -17 -31 -12 -58 4 -22 3 -35 -4 -35 -5 0
-10 -5 -10 -11 0 -5 6 -7 13 -3 9 6 9 5 0 -7 -7 -9 -8 -20 -3 -29 5 -8 6 -27
3 -42 -4 -19 -1 -28 8 -28 10 0 10 -3 1 -12 -7 -7 -12 -22 -12 -35 0 -13 -4
-23 -9 -23 -5 0 -12 -7 -15 -16 -3 -8 -2 -12 3 -9 5 3 12 1 16 -5 3 -5 1 -10
-6 -10 -7 0 -9 -3 -6 -7 4 -3 1 -13 -6 -21 -7 -10 -8 -13 -1 -9 7 4 14 -2 17
-13 3 -11 0 -20 -6 -20 -6 0 -8 -3 -4 -6 3 -3 1 -19 -5 -35 -9 -25 -7 -32 7
-43 11 -8 16 -20 12 -29 -3 -8 0 -21 8 -27 14 -12 28 -53 15 -45 -4 3 -10 -7
-13 -20 -2 -14 0 -28 6 -32 5 -3 7 -1 3 5 -3 6 -2 13 3 16 11 7 21 -99 17
-189 -2 -44 1 -73 8 -77 7 -5 8 -8 0 -8 -7 0 -10 -26 -8 -75 2 -42 -1 -73 -6
-70 -9 6 -8 -14 3 -31 3 -6 6 -60 6 -120 -1 -165 6 -291 18 -306 12 -15 12
-20 13 -142 0 -57 -5 -95 -13 -104 -10 -13 -9 -14 2 -8 9 6 12 5 9 -5 -3 -8
-2 -21 3 -30 4 -8 3 -22 -2 -30 -8 -12 -10 -12 -8 1 3 27 -1 40 -10 40 -12 0
-2 -94 10 -98 5 -2 9 -16 9 -30 l-1 -27 -14 25 c-14 25 -14 25 -15 -14 0 -33
2 -37 15 -26 11 9 15 9 15 1 0 -6 -6 -14 -14 -17 -17 -6 -15 -50 3 -83 11 -20
11 -23 0 -19 -10 4 -15 -4 -16 -28 -2 -38 13 -47 20 -11 2 12 4 6 3 -15 -1
-26 -4 -34 -13 -27 -8 7 -10 4 -6 -11 3 -11 9 -23 14 -26 12 -7 11 -81 0 -89
-6 -3 -8 5 -5 19 2 14 0 27 -5 30 -10 7 -19 -91 -10 -106 3 -5 10 1 14 14 6
20 8 21 12 5 3 -10 -4 -28 -14 -40 -16 -19 -16 -20 0 -8 15 12 17 11 17 -14 0
-23 -2 -25 -15 -15 -12 10 -14 -1 -14 -84 0 -53 -5 -104 -10 -114 -6 -11 -8
-22 -5 -25 9 -9 12 -187 3 -187 -5 0 -9 -9 -9 -21 0 -11 -4 -17 -10 -14 -6 3
-9 -12 -7 -40 1 -25 5 -45 10 -45 4 0 7 5 7 12 0 6 3 8 6 5 4 -4 1 -14 -7 -23
-9 -11 -10 -19 -3 -21 6 -2 9 -26 7 -58 -1 -30 1 -55 6 -55 4 0 8 -7 8 -15 0
-8 -4 -15 -9 -15 -5 0 -5 -8 1 -17 5 -10 5 -26 0 -41 -5 -13 -7 -27 -4 -32 3
-5 7 -59 10 -122 5 -124 6 -136 20 -158 5 -8 11 -22 12 -30 6 -31 9 -448 3
-507 -3 -34 -2 -73 1 -87 4 -14 3 -24 -1 -21 -19 12 -32 -43 -34 -149 -1 -62
-5 -116 -7 -122 -3 -5 -4 -20 -2 -34 3 -24 3 -55 4 -174 0 -33 3 -64 6 -69 3
-4 -3 -18 -14 -29 -10 -12 -13 -18 -7 -15 14 8 39 -19 25 -27 -5 -3 -8 -14 -6
-24 2 -9 4 -41 4 -70 1 -36 5 -51 12 -46 8 4 8 1 2 -12 -15 -30 -11 -200 5
-197 6 2 12 -2 12 -7 0 -6 -7 -10 -15 -10 -16 0 -22 -66 -17 -179 2 -36 -3
-62 -14 -79 -11 -17 -12 -22 -3 -16 9 5 8 -1 -3 -18 -12 -18 -14 -29 -7 -34 7
-4 8 -9 0 -17 -7 -7 -7 -16 0 -29 5 -10 6 -18 1 -18 -4 0 -8 -9 -9 -20 -1 -11
2 -20 7 -20 5 0 6 -10 2 -22 -3 -13 -6 -53 -6 -90 0 -36 -3 -65 -6 -63 -5 3
-5 -137 1 -317 2 -73 5 -85 18 -81 14 4 14 3 1 -9 -16 -14 -22 -108 -6 -105 5
1 11 -4 14 -12 3 -10 0 -12 -12 -8 -12 5 -16 0 -16 -18 0 -13 5 -27 12 -31 7
-4 8 -3 4 4 -4 7 -3 12 2 12 5 0 12 -35 16 -77 5 -73 10 -272 6 -283 -1 -3 -4
-110 -5 -238 -2 -129 -6 -236 -9 -239 -3 -3 -1 -14 5 -24 7 -13 6 -19 -1 -19
-6 0 -8 -5 -5 -10 3 -6 -1 -17 -10 -26 -9 -9 -13 -19 -10 -22 3 -4 10 0 15 8
7 11 9 8 8 -10 -1 -14 -6 -28 -12 -32 -13 -9 -18 -66 -5 -73 7 -5 5 -15 -5
-29 -8 -13 -13 -35 -12 -50 2 -14 -1 -26 -6 -26 -5 0 -4 -9 2 -19 12 -24 13
-34 1 -26 -8 4 -25 -27 -24 -45 0 -3 -3 -15 -8 -28 -9 -23 10 -57 25 -47 3 3
2 -1 -4 -7 -13 -16 -13 -38 1 -38 5 0 7 5 4 10 -3 5 -1 10 4 10 6 0 11 -8 12
-17 1 -37 10 -67 21 -74 8 -5 6 -12 -5 -24 -18 -18 -13 -40 5 -29 8 5 9 1 4
-12 -12 -31 -12 -39 2 -36 6 1 12 -7 12 -18 0 -11 -7 -20 -16 -20 -11 0 -13
-6 -9 -20 3 -10 1 -28 -5 -40 -8 -15 -8 -20 1 -20 6 0 9 -6 6 -14 -3 -7 -1
-18 5 -24 8 -8 7 -13 -6 -18 -13 -5 -14 -9 -5 -20 9 -11 9 -14 -1 -14 -14 0
-10 -61 4 -72 7 -4 6 -15 -2 -30 -6 -13 -11 -37 -10 -54 0 -17 -2 -36 -6 -43
-4 -6 -1 -14 7 -17 11 -4 13 -14 7 -40 -4 -19 -4 -34 1 -34 5 0 4 -11 -1 -25
-10 -27 -3 -58 11 -49 5 3 6 -2 3 -11 -4 -8 0 -22 7 -31 9 -12 10 -17 1 -23
-6 -4 -9 -19 -6 -35 7 -38 7 -38 5 -64 0 -13 -5 -20 -11 -17 -5 3 -10 1 -10
-4 0 -6 4 -11 9 -11 14 0 7 -30 -10 -41 -12 -7 -12 -9 1 -9 13 0 13 -1 0 -10
-9 -6 -17 -5 -22 3 -6 9 -8 9 -8 0 0 -6 5 -15 10 -18 14 -9 13 -18 -6 -41 -13
-16 -15 -16 -10 -1 3 9 1 17 -4 17 -6 0 -10 -6 -10 -14 0 -8 -6 -16 -12 -19
-17 -6 -5 -18 20 -20 42 -3 11 -14 -38 -13 -27 1 -52 -3 -54 -9 -3 -5 -5 0 -5
12 -1 13 6 23 17 26 10 3 5 5 -13 7 -16 1 -24 4 -17 7 10 4 10 8 0 21 -11 13
-11 14 2 7 11 -6 10 -3 -3 12 -18 21 -24 48 -7 38 6 -3 10 -2 10 3 0 14 -26
33 -33 25 -4 -3 -7 12 -7 35 0 23 5 42 10 42 6 0 10 5 10 11 0 5 -5 7 -11 3
-8 -5 -9 8 -5 42 3 27 6 60 6 74 0 20 2 22 10 10 8 -12 10 -11 10 8 0 12 5 22
10 22 6 0 10 8 10 18 0 14 -2 15 -10 2 -6 -9 -10 -10 -10 -3 0 6 4 15 10 18 6
4 10 70 9 166 0 88 -4 157 -8 155 -4 -3 -8 1 -8 9 0 8 3 12 7 10 4 -2 7 2 7
10 0 8 -4 12 -9 9 -12 -8 -13 16 -4 104 3 24 7 46 10 49 3 3 1 14 -4 24 -7 12
-7 20 0 24 5 3 10 29 10 56 0 31 4 48 10 44 5 -3 10 -1 10 4 0 6 -4 11 -10 11
-5 0 -10 5 -10 11 0 5 5 7 10 4 6 -4 10 8 10 29 0 20 5 36 10 36 6 0 10 5 10
11 0 5 -5 7 -10 4 -6 -3 -10 3 -10 14 0 11 5 23 10 26 13 8 13 52 0 60 -16 10
-12 25 8 25 13 0 17 8 16 33 -2 44 -14 78 -26 71 -5 -3 -9 0 -7 7 1 8 1 45 0
82 -1 51 -4 66 -13 61 -10 -6 -10 -4 0 7 13 14 17 43 4 35 -4 -2 -9 4 -9 15
-1 11 2 17 8 14 7 -5 15 49 10 77 0 4 -1 67 -1 140 1 453 -1 536 -8 563 -9 32
-9 42 1 65 7 20 5 50 -3 50 -4 0 -10 21 -13 46 -2 25 -14 59 -26 75 -15 19
-21 43 -21 77 0 26 -6 54 -12 61 -10 11 -10 13 0 7 6 -4 12 -2 12 3 0 6 -4 11
-8 11 -9 0 -11 11 -12 73 -1 20 -6 37 -12 37 -7 0 -6 5 1 14 8 10 9 16 1 21
-5 3 -10 15 -10 26 0 10 -4 19 -9 19 -5 0 -10 -61 -10 -135 -1 -87 2 -135 9
-135 5 0 10 -5 10 -11 0 -5 -4 -7 -10 -4 -13 8 -13 -8 -1 -21 7 -7 23 -301 22
-406 0 -11 6 -15 15 -11 16 6 17 2 8 -21 -3 -9 -10 -13 -16 -10 -5 3 -4 -3 3
-14 7 -12 16 -19 20 -16 4 2 11 -1 15 -7 4 -8 3 -9 -4 -5 -15 9 -16 -19 -1
-46 8 -15 8 -19 0 -14 -11 7 -15 -5 -12 -32 1 -7 -5 -15 -14 -18 -19 -8 -20
-33 -1 -40 12 -4 11 -9 -5 -25 -15 -15 -20 -32 -19 -62 3 -74 1 -89 -12 -81
-10 6 -10 4 0 -7 6 -7 12 -31 12 -53 0 -27 -3 -36 -9 -27 -15 24 -19 -49 -5
-96 7 -24 9 -41 4 -38 -6 4 -10 -1 -10 -9 0 -9 4 -16 10 -16 10 0 9 -27 -2
-45 -7 -12 -14 -133 -7 -139 9 -10 -3 -146 -13 -140 -6 4 -8 -1 -4 -13 4 -12
1 -25 -9 -33 -13 -11 -15 -5 -15 50 0 70 -6 75 -16 14 -3 -21 -8 -41 -10 -43
-2 -2 -3 1386 -2 3085 0 1699 4 3071 7 3049 l7 -40 8 34 c7 29 10 31 18 17 5
-9 12 -15 16 -12 4 2 8 -14 10 -35 2 -26 -2 -39 -10 -39 -10 0 -10 -2 0 -9 8
-4 13 -11 13 -15 -1 -3 -1 -33 -1 -67 0 -45 3 -58 13 -53 9 6 9 5 1 -7 -14
-17 -17 -99 -3 -99 5 0 9 -8 9 -17 0 -13 -3 -15 -8 -5 -5 7 -9 -17 -10 -57 -1
-38 2 -73 8 -76 7 -4 7 -13 0 -26 -6 -10 -7 -19 -2 -19 5 0 7 -11 4 -25 -2
-15 0 -25 7 -25 6 0 11 -5 11 -11 0 -5 -5 -7 -12 -3 -6 4 -8 3 -5 -3 4 -6 9
-53 11 -104 2 -56 8 -95 15 -97 6 -2 11 -13 10 -25 0 -21 -1 -21 -9 -2 -6 15
-9 6 -9 -33 -1 -33 3 -51 9 -47 6 3 10 2 10 -4 0 -5 -5 -11 -11 -13 -13 -4
-19 -147 -7 -154 5 -3 3 -13 -4 -22 -12 -15 -11 -16 5 -3 13 10 15 17 6 27 -8
10 -8 14 0 14 7 0 9 12 5 34 -3 19 0 37 6 41 5 3 10 22 10 42 0 22 6 41 16 48
17 12 28 75 13 75 -5 0 -4 12 2 27 6 18 6 30 0 36 -7 7 -7 15 -1 22 7 9 5 17
-7 26 -15 12 -16 12 -10 -3 3 -10 3 -19 -1 -22 -4 -2 -9 6 -10 20 -1 13 3 24
8 24 17 0 29 43 17 58 -9 11 -12 11 -18 -5 -8 -18 -12 100 -10 281 1 56 -3
104 -9 111 -7 9 -7 21 0 39 5 14 6 26 1 26 -9 0 -9 -2 -14 142 -2 65 1 151 8
193 6 41 9 75 7 75 -2 0 1 6 7 13 6 8 7 18 3 23 -4 4 1 2 11 -5 15 -12 17 -11
18 5 0 18 1 18 9 -1 6 -14 9 -3 10 40 4 136 -1 294 -10 325 -6 22 -6 38 1 46
7 8 7 14 -1 19 -5 3 -10 14 -9 23 0 14 2 13 9 -3 9 -20 9 -20 9 1 1 11 -5 26
-11 33 -11 11 -10 12 0 7 10 -6 12 5 7 51 -4 32 -9 61 -11 65 -3 5 0 8 5 8 16
0 14 110 -1 111 -10 0 -10 2 0 6 6 2 12 9 12 14 0 6 -4 7 -10 4 -6 -4 -10 11
-11 37 -1 24 -2 48 -4 53 -1 6 -3 24 -4 40 -2 26 -3 27 -11 10 -7 -17 -9 -16
-10 10 -1 50 -8 156 -13 220 -3 33 0 89 5 125 6 36 10 83 9 106 -1 33 3 44 24
60 24 18 37 52 14 38 -7 -4 -9 5 -6 29 2 19 1 39 -4 44 -5 5 -1 22 7 38 9 17
16 42 16 58 -1 18 3 25 11 21 8 -5 8 -3 0 7 -15 16 -17 33 -3 24 6 -3 10 3 10
14 0 12 -4 21 -10 21 -5 0 -10 5 -10 11 0 5 4 8 9 4 6 -3 8 5 6 17 -13 92 -14
107 -5 113 8 5 8 11 1 19 -6 7 -11 82 -11 174 -1 111 -5 162 -13 162 -6 0 -3
6 8 14 10 7 19 22 20 32 2 30 13 41 37 39 13 -1 33 -3 46 -4z m-653 -11 c3 -5
1 -10 -4 -10 -6 0 -11 5 -11 10 0 6 2 10 4 10 3 0 8 -4 11 -10z m709 -206 c8
-22 8 -39 -1 -30 -5 4 -8 11 -8 14 0 4 -4 13 -8 20 -5 6 -4 12 1 12 6 0 13 -7
16 -16z m-316 -565 c1 -22 4 -45 8 -50 3 -5 1 -9 -4 -9 -10 0 -20 70 -14 89 6
19 9 12 10 -30z m32 -334 c0 -17 2 -17 10 -5 5 8 10 11 10 7 0 -4 -8 -20 -17
-34 -10 -15 -13 -24 -6 -20 18 11 30 -103 12 -117 -8 -6 -15 -22 -17 -36 -2
-19 0 -22 8 -10 8 13 10 13 10 -2 0 -9 -5 -20 -10 -23 -7 -4 -8 -26 -4 -57 5
-34 4 -49 -3 -45 -11 7 -16 90 -14 237 1 63 -2 90 -8 81 -5 -8 -10 -66 -10
-129 0 -63 -2 -116 -5 -119 -3 -4 -5 65 -5 153 1 87 5 148 9 134 l7 -25 8 28
c6 21 10 25 16 15 5 -7 9 -22 9 -33z m13 -260 c-3 -9 -8 -14 -10 -11 -3 3 -2
9 2 15 9 16 15 13 8 -4z m-50 -126 c-1 -37 2 -71 8 -74 8 -6 14 28 10 65 -1
12 1 11 12 -2 8 -10 16 -16 18 -13 3 2 6 -16 7 -40 1 -24 -3 -47 -8 -50 -6 -3
-10 -11 -10 -16 0 -6 5 -7 10 -4 6 3 10 1 10 -4 0 -6 -4 -11 -10 -11 -5 0 -10
-5 -10 -11 0 -5 6 -7 13 -3 6 4 3 -3 -8 -16 -11 -13 -15 -20 -9 -17 7 4 14 -4
17 -21 7 -34 -3 -83 -14 -76 -5 3 -9 -5 -9 -18 0 -18 2 -20 10 -8 8 13 10 12
10 -4 0 -14 -6 -17 -23 -14 -22 4 -24 2 -25 -54 0 -32 3 -58 7 -58 5 0 8 21 7
48 -1 40 2 47 19 50 19 3 21 -2 20 -56 0 -37 -6 -66 -15 -77 -11 -14 -12 -17
-1 -10 11 6 12 1 7 -31 -14 -75 -15 -78 -36 -51 -18 22 -19 47 -19 353 0 181
3 321 8 311 4 -11 6 -50 4 -88z m38 14 c13 -16 12 -17 -3 -4 -17 13 -22 21
-14 21 2 0 10 -8 17 -17z m-44 -625 c-3 -7 -5 -2 -5 12 0 14 2 19 5 13 2 -7 2
-19 0 -25z m0 -50 c-3 -7 -5 -2 -5 12 0 14 2 19 5 13 2 -7 2 -19 0 -25z m453
28 c0 -3 -4 -8 -10 -11 -5 -3 -10 -1 -10 4 0 6 5 11 10 11 6 0 10 -2 10 -4z
m-5 -150 c0 -106 -11 -156 -15 -69 -5 112 -2 173 8 173 4 0 7 -47 7 -104z
m-78 47 c-3 -10 -5 -4 -5 12 0 17 2 24 5 18 2 -7 2 -21 0 -30z m-370 -255 c-2
-13 -4 -5 -4 17 -1 22 1 32 4 23 2 -10 2 -28 0 -40z m440 -25 c-3 -10 -5 -4
-5 12 0 17 2 24 5 18 2 -7 2 -21 0 -30z m0 -55 c-3 -7 -5 -2 -5 12 0 14 2 19
5 13 2 -7 2 -19 0 -25z m-67 -168 c0 -5 -5 -10 -11 -10 -5 0 -7 5 -4 10 3 6 8
10 11 10 2 0 4 -4 4 -10z m-260 -771 c0 -11 -4 -18 -10 -14 -5 3 -7 12 -3 20
7 21 13 19 13 -6z m220 -644 c0 -5 -5 -3 -10 5 -5 8 -10 20 -10 25 0 6 5 3 10
-5 5 -8 10 -19 10 -25z m110 -740 c3 -144 1 -239 -5 -233 -3 3 -5 65 -6 139 0
182 0 203 5 198 3 -2 5 -49 6 -104z m-43 -207 c-2 -29 -3 -8 -3 47 0 55 1 79
3 53 2 -26 2 -71 0 -100z m43 -58 c0 -11 -4 -20 -9 -20 -6 0 -9 9 -8 20 1 11
5 20 9 20 4 0 8 -9 8 -20z m-43 -52 c-3 -8 -6 -5 -6 6 -1 11 2 17 5 13 3 -3 4
-12 1 -19z m43 -37 c0 -45 -6 -37 -13 18 -4 29 -2 40 4 30 5 -7 9 -29 9 -48z
m-73 -156 c0 -8 -4 -15 -9 -15 -10 0 -11 14 -1 23 9 10 10 9 10 -8z m2 -822
c1 -26 -1 -44 -5 -41 -8 9 -9 88 -1 88 2 0 4 -21 6 -47z m76 -213 c3 -5 1 -10
-4 -10 -6 0 -11 5 -11 10 0 6 2 10 4 10 3 0 8 -4 11 -10z m-448 -2307 c-3 -10
-5 -4 -5 12 0 17 2 24 5 18 2 -7 2 -21 0 -30z m0 -90 c-3 -10 -5 -2 -5 17 0
19 2 27 5 18 2 -10 2 -26 0 -35z m45 -57 c6 4 8 -1 6 -11 -6 -35 -25 -26 -25
12 0 21 2 28 4 15 3 -12 9 -19 15 -16z m4 -98 c14 -22 17 -158 4 -158 -9 0
-10 -3 -1 -13 12 -15 13 -289 0 -282 -4 3 -9 -6 -11 -20 -5 -22 -3 -24 11 -13
10 8 9 5 -3 -10 -11 -12 -14 -22 -9 -22 6 0 14 -7 17 -16 4 -12 2 -15 -9 -10
-8 3 -15 1 -15 -4 0 -6 7 -10 15 -10 8 0 15 -7 15 -16 0 -9 -5 -12 -12 -8 -10
6 -10 5 0 -8 10 -12 9 -18 -3 -28 -8 -7 -15 -18 -14 -24 0 -7 2 -6 6 2 7 18
22 14 18 -5 -2 -10 -4 -27 -4 -38 -1 -17 -3 -17 -16 -5 -15 16 -24 128 -11
148 3 6 2 13 -3 17 -5 3 -8 14 -6 25 2 11 0 20 -5 20 -5 0 -11 -15 -13 -32 -2
-18 -4 1 -5 42 0 41 2 69 5 63 10 -26 23 -12 23 26 0 64 -14 84 -21 31 -3 -25
-7 39 -7 143 -1 103 0 187 3 187 2 0 9 -15 14 -32 9 -32 9 -32 10 15 1 45 12
60 27 35z m111 -330 c-3 -8 -6 -5 -6 6 -1 11 2 17 5 13 3 -3 4 -12 1 -19z
m-152 -257 c2 -11 0 -21 -6 -21 -5 0 -9 12 -9 27 0 30 9 27 15 -6z m325 -31
c0 -5 -5 -10 -11 -10 -5 0 -7 5 -4 10 3 6 8 10 11 10 2 0 4 -4 4 -10z m-325
-9 c3 -5 2 -12 -3 -15 -5 -3 -9 1 -9 9 0 17 3 19 12 6z m42 -99 c0 -10 -9 -19
-20 -19 -18 -2 -18 -1 -2 18 22 23 24 24 22 1z m97 -248 c9 -3 14 -10 11 -15
-7 -10 -35 0 -35 12 0 11 3 11 24 3z m-20 -58 c-3 -15 -8 -25 -11 -23 -2 3 -1
17 3 31 3 15 8 25 11 23 2 -3 1 -17 -3 -31z m136 7 c0 -1 -9 -7 -20 -13 -15
-8 -20 -8 -20 3 0 7 9 13 20 13 11 0 20 -1 20 -3z m-3 -97 c0 -15 -21 -16 -34
-1 -4 4 -3 5 4 1 6 -3 14 -2 18 4 8 14 12 13 12 -4z m193 -35 c0 -11 -4 -22
-9 -25 -4 -3 -6 6 -3 21 3 18 1 24 -7 19 -7 -5 -11 1 -11 14 0 19 2 20 15 6 8
-8 15 -24 15 -35z"/>
<path d="M1565 8420 c3 -5 8 -10 11 -10 2 0 4 5 4 10 0 6 -5 10 -11 10 -5 0
-7 -4 -4 -10z"/>
<path d="M1303 7575 c0 -8 4 -12 9 -9 5 3 6 10 3 15 -9 13 -12 11 -12 -6z"/>
<path d="M1431 7324 c0 -11 3 -14 6 -6 3 7 2 16 -1 19 -3 4 -6 -2 -5 -13z"/>
<path d="M1433 7175 c0 -8 4 -15 9 -15 4 0 8 4 8 9 0 6 -4 12 -8 15 -5 3 -9
-1 -9 -9z"/>
<path d="M1380 6521 c0 -6 4 -13 10 -16 6 -3 7 1 4 9 -7 18 -14 21 -14 7z"/>
<path d="M1611 6364 c0 -11 3 -14 6 -6 3 7 2 16 -1 19 -3 4 -6 -2 -5 -13z"/>
<path d="M1377 6293 c-3 -5 -1 -17 4 -28 6 -17 7 -16 6 8 -1 28 -3 32 -10 20z"/>
<path d="M1613 6233 c-3 -10 -8 -21 -10 -25 -2 -5 0 -8 5 -8 5 0 12 11 14 25
6 29 0 33 -9 8z"/>
<path d="M1385 6228 c-2 -7 -6 -41 -9 -75 -2 -35 -7 -67 -11 -73 -3 -5 -1 -10
4 -10 6 0 11 -10 10 -22 0 -22 -1 -22 -9 -3 -8 20 -12 -95 -11 -330 0 -190 1
-191 12 -175 7 11 9 0 7 -42 -2 -31 0 -54 3 -52 4 2 6 -44 5 -102 -1 -58 2
-108 5 -110 4 -2 5 -14 1 -26 -4 -16 -2 -19 9 -13 12 7 12 6 0 -9 -14 -17 -18
-46 -20 -144 -1 -26 -5 -41 -11 -37 -5 3 -10 2 -10 -4 0 -5 5 -11 10 -13 6 -2
12 -47 14 -103 5 -122 4 -115 16 -115 7 0 9 17 5 45 -3 25 -2 45 2 45 9 0 12
28 12 114 0 48 3 57 15 53 12 -5 15 0 12 23 -3 30 8 42 17 18 2 -7 4 2 5 21 0
18 6 39 11 44 14 14 14 30 1 22 -6 -4 -10 13 -10 44 0 65 0 64 -13 80 -7 8 -7
12 -2 9 7 -4 11 28 13 95 1 70 -1 97 -8 87 -5 -8 -10 -13 -10 -10 0 3 -2 32
-5 65 -2 33 -8 61 -14 63 -6 2 -11 11 -11 20 0 14 2 14 9 3 7 -10 11 -1 16 32
4 26 11 44 16 41 5 -3 9 0 9 5 0 6 -6 11 -12 11 -9 0 -8 4 2 10 8 5 10 10 4
10 -6 0 -11 6 -12 13 -1 10 -4 35 -11 77 -1 3 -6 -2 -11 -10 -8 -13 -10 -12
-10 3 0 9 7 17 15 17 8 0 15 4 15 10 0 5 -7 7 -15 4 -12 -5 -15 3 -15 36 0 25
4 39 10 35 6 -3 10 -1 10 4 0 6 -6 11 -12 11 -7 0 -5 5 5 11 9 5 17 20 16 32
l0 22 -9 -22 c-5 -13 -11 -23 -13 -23 -7 0 -5 44 4 66 6 17 6 23 -1 19 -6 -3
-10 2 -11 12 -3 57 -7 81 -17 104 -6 14 -9 42 -7 62 3 36 -2 49 -10 25z m42
-730 c-3 -8 -6 -5 -6 6 -1 11 2 17 5 13 3 -3 4 -12 1 -19z m13 -48 c0 -5 -4
-10 -10 -10 -5 0 -10 5 -10 10 0 6 5 10 10 10 6 0 10 -4 10 -10z"/>
<path d="M1606 6158 c3 -5 10 -6 15 -3 13 9 11 12 -6 12 -8 0 -12 -4 -9 -9z"/>
<path d="M1311 5784 c0 -11 3 -14 6 -6 3 7 2 16 -1 19 -3 4 -6 -2 -5 -13z"/>
<path d="M1301 5654 c0 -11 3 -14 6 -6 3 7 2 16 -1 19 -3 4 -6 -2 -5 -13z"/>
<path d="M1640 5408 c0 -23 3 -38 7 -34 11 11 13 76 2 76 -5 0 -9 -19 -9 -42z"/>
<path d="M1646 4947 c3 -10 9 -15 12 -12 3 3 0 11 -7 18 -10 9 -11 8 -5 -6z"/>
<path d="M1389 4700 c-5 -76 -8 -193 -8 -328 -1 -109 -4 -151 -12 -146 -8 4
-8 1 -1 -12 12 -22 12 -24 12 -65 0 -16 3 -28 8 -25 4 2 6 36 6 76 -2 54 1 70
11 66 9 -3 11 4 5 30 -4 19 -4 36 0 39 5 3 6 14 3 24 -3 10 -1 21 4 24 12 8
-2 316 -16 330 -8 8 -11 5 -12 -13z"/>
<path d="M1385 4080 c3 -5 8 -10 11 -10 2 0 4 5 4 10 0 6 -5 10 -11 10 -5 0
-7 -4 -4 -10z"/>
<path d="M1380 3983 c0 -14 3 -23 7 -19 10 10 11 46 1 46 -4 0 -8 -12 -8 -27z"/>
<path d="M1305 3740 c-3 -5 -1 -10 4 -10 6 0 11 5 11 10 0 6 -2 10 -4 10 -3 0
-8 -4 -11 -10z"/>
<path d="M1311 3684 c0 -11 3 -14 6 -6 3 7 2 16 -1 19 -3 4 -6 -2 -5 -13z"/>
<path d="M1347 3663 c-2 -5 -3 -17 -1 -28 1 -10 -3 -26 -9 -34 -9 -12 -9 -13
1 -7 8 5 12 1 12 -11 0 -14 2 -15 9 -4 5 7 5 28 1 47 -4 18 -5 35 -2 38 3 4 3
6 -1 6 -3 0 -8 -3 -10 -7z"/>
<path d="M1306 3608 c6 -79 5 -75 13 -55 8 22 2 87 -8 87 -4 0 -6 -15 -5 -32z"/>
<path d="M1330 3551 c0 -5 5 -13 10 -16 6 -3 10 -2 10 4 0 5 -4 13 -10 16 -5
3 -10 2 -10 -4z"/>
<path d="M1310 3520 c-6 -62 -6 -110 0 -110 4 0 6 12 6 28 -1 15 1 34 5 42 4
8 3 24 -2 35 -5 14 -8 15 -9 5z"/>
<path d="M1348 3456 c-3 -14 -1 -31 3 -38 6 -8 9 1 9 25 0 42 -6 48 -12 13z"/>
<path d="M1351 3344 c0 -11 3 -14 6 -6 3 7 2 16 -1 19 -3 4 -6 -2 -5 -13z"/>
<path d="M1360 3300 c0 -5 5 -10 11 -10 5 0 7 5 4 10 -3 6 -8 10 -11 10 -2 0
-4 -4 -4 -10z"/>
<path d="M1361 2074 c0 -11 3 -14 6 -6 3 7 2 16 -1 19 -3 4 -6 -2 -5 -13z"/>
<path d="M1312 1735 c0 -16 2 -22 5 -12 2 9 2 23 0 30 -3 6 -5 -1 -5 -18z"/>
<path d="M1309 1688 c0 -7 -2 -25 -3 -40 -1 -16 2 -28 6 -28 4 0 8 18 8 40 0
22 -2 40 -5 40 -3 0 -5 -6 -6 -12z"/>
<path d="M1561 304 c0 -11 3 -14 6 -6 3 7 2 16 -1 19 -3 4 -6 -2 -5 -13z"/>
<path d="M1303 8533 c1 -18 5 -33 10 -33 4 0 5 -4 2 -10 -3 -6 1 -7 10 -3 11
4 13 8 5 13 -6 4 -15 20 -20 36 l-9 29 2 -32z"/>
<path d="M1302 8210 c2 -52 6 -70 19 -70 10 0 5 35 -10 85 -9 28 -10 27 -9
-15z"/>
<path d="M1309 1108 c-1 -2 -3 -32 -5 -68 -3 -42 -1 -60 5 -50 8 14 12 120 4
120 -1 0 -3 -1 -4 -2z"/>
<path d="M1305 10180 c3 -5 8 -10 11 -10 2 0 4 5 4 10 0 6 -5 10 -11 10 -5 0
-7 -4 -4 -10z"/>
<path d="M2097 10153 c-7 -12 -1 -92 6 -100 4 -3 7 19 7 50 0 54 -3 66 -13 50z"/>
<path d="M2103 9980 c0 -36 2 -50 4 -32 2 17 2 47 0 65 -2 17 -4 3 -4 -33z"/>
<path d="M2101 9894 c0 -11 3 -14 6 -6 3 7 2 16 -1 19 -3 4 -6 -2 -5 -13z"/>
<path d="M1306 9655 c4 -8 8 -15 10 -15 2 0 4 7 4 15 0 8 -4 15 -10 15 -5 0
-7 -7 -4 -15z"/>
<path d="M1311 9614 c0 -11 3 -14 6 -6 3 7 2 16 -1 19 -3 4 -6 -2 -5 -13z"/>
<path d="M6780 9019 c-271 -37 -1023 -136 -1935 -254 -407 -53 -1093 -143
-1525 -200 -432 -57 -854 -113 -939 -124 -84 -11 -155 -21 -157 -23 -3 -4 6
-100 67 -703 58 -578 70 -690 74 -721 l5 -30 273 -55 272 -54 -108 -5 -108 -5
-43 -100 c-24 -55 -98 -212 -165 -349 l-121 -250 2 -370 3 -370 205 -41 c209
-42 265 -56 197 -51 -21 2 -39 0 -42 -3 -2 -4 15 -8 38 -10 89 -5 44 -11 -85
-11 l-136 0 -6 -142 c-5 -138 -25 -893 -29 -1147 l-2 -124 80 -19 c44 -11 255
-59 469 -108 214 -49 390 -91 392 -92 2 -2 -79 -16 -179 -32 -311 -48 -640
-104 -844 -143 l-196 -37 6 -571 c4 -313 10 -718 13 -900 l7 -330 -182 -90
c-99 -49 -181 -92 -181 -96 0 -10 52 -13 1113 -64 172 -8 582 -29 912 -45 330
-16 890 -43 1245 -60 355 -16 679 -32 720 -35 72 -5 467 -25 1605 -80 286 -14
592 -29 680 -34 88 -5 162 -7 164 -5 13 12 256 1026 247 1029 -6 2 -220 11
-476 20 -256 9 -466 18 -468 19 -1 2 -6 285 -10 631 l-7 628 -120 34 c-66 19
-192 54 -280 78 -138 37 -155 43 -125 49 43 7 276 22 607 38 139 6 257 14 262
18 5 3 17 185 25 405 9 220 20 513 26 650 5 138 10 284 11 325 l2 75 -53 7
c-109 13 -703 49 -915 55 l-220 6 200 48 c195 47 645 149 735 166 l45 9 6 129
c4 72 8 202 9 290 l2 160 -147 305 c-216 448 -248 522 -235 530 6 4 93 17 193
30 100 13 185 26 189 29 4 3 2 283 -4 621 l-10 615 -57 60 c-64 67 -325 356
-591 655 -95 107 -178 196 -184 196 -6 1 -103 -11 -216 -27z m214 -66 c6 -61
13 -155 46 -598 11 -148 29 -384 41 -524 11 -140 18 -255 17 -256 -4 -2 -127
-17 -1048 -131 -382 -46 -1057 -130 -1500 -185 -443 -54 -920 -113 -1060 -130
-140 -18 -442 -55 -670 -84 -228 -29 -416 -51 -417 -51 -1 1 -9 69 -17 151
-94 919 -125 1239 -122 1242 1 2 88 15 192 28 104 14 324 43 489 65 165 22
523 69 795 105 272 36 855 112 1295 170 824 108 1648 216 1815 239 149 21 137
25 144 -41z m416 -408 c168 -187 322 -359 343 -382 l38 -41 10 -499 c6 -274 9
-537 7 -586 l-3 -87 -250 232 c-138 128 -288 267 -334 309 l-82 76 -9 99 c-5
54 -18 227 -30 384 -19 265 -53 716 -65 855 l-5 60 38 -40 c20 -23 174 -194
342 -380z m-30 -2355 c0 -679 -1 -720 -17 -720 -24 0 -1437 -27 -2088 -40
-997 -20 -1480 -30 -1998 -41 -284 -7 -520 -10 -522 -7 -7 6 -30 1426 -24
1431 2 2 418 11 924 21 3016 55 3569 66 3693 74 l32 2 0 -720z m279 119 l151
-317 -6 -238 c-3 -132 -7 -254 -10 -273 l-5 -33 -52 6 c-29 3 -114 8 -189 12
l-138 6 1 677 1 676 48 -100 c26 -55 115 -242 199 -416z m-4949 -258 c6 -365
9 -666 6 -668 -3 -4 -296 45 -303 51 -1 1 -5 155 -9 343 l-7 342 149 311 c82
171 150 305 151 298 1 -7 7 -312 13 -677z m440 -811 c526 -12 1167 -25 1905
-40 835 -16 1474 -30 1860 -40 198 -5 384 -10 414 -10 l54 0 -6 -157 c-4 -87
-11 -372 -17 -633 -6 -261 -13 -502 -16 -535 l-5 -60 -147 7 c-266 12 -1096
38 -1722 53 -338 8 -694 17 -790 20 -96 3 -429 12 -740 20 -311 9 -689 20
-840 25 -151 5 -337 10 -413 10 l-138 0 6 208 c3 114 10 341 16 505 5 164 9
377 9 473 l0 174 58 -5 c31 -3 262 -10 512 -15z m4383 -107 c-7 -2 -21 -2 -30
0 -10 3 -4 5 12 5 17 0 24 -2 18 -5z m440 -30 c-7 -2 -19 -2 -25 0 -7 3 -2 5
12 5 14 0 19 -2 13 -5z m24 -40 c-3 -10 -5 -2 -5 17 0 19 2 27 5 18 2 -10 2
-26 0 -35z m-10 -215 c-3 -7 -5 -2 -5 12 0 14 2 19 5 13 2 -7 2 -19 0 -25z
m-10 -280 c-2 -18 -4 -6 -4 27 0 33 2 48 4 33 2 -15 2 -42 0 -60z m-20 -525
c-2 -16 -4 -5 -4 22 0 28 2 40 4 28 2 -13 2 -35 0 -50z m-1134 -620 c-177 -2
-469 -2 -650 0 -180 1 -35 2 322 2 358 0 505 -1 328 -2z m-3476 -9 c-3 -3 -12
-4 -19 -1 -8 3 -5 6 6 6 11 1 17 -2 13 -5z m1181 -1 c-212 -2 -563 -2 -780 0
-216 1 -42 2 387 2 429 0 606 -1 393 -2z m-1910 -10 l-337 -3 -4 -38 -4 -37
-1 43 -2 42 343 -2 342 -3 -337 -2z m-331 -330 c-3 -10 -5 -4 -5 12 0 17 2 24
5 18 2 -7 2 -21 0 -30z m0 -430 c-1 -76 -3 -14 -3 137 0 151 2 213 3 138 2
-76 2 -200 0 -275z m1840 96 c48 -13 123 -74 123 -101 0 -8 -16 -22 -35 -31
-35 -17 -36 -17 -63 8 -33 31 -61 39 -114 32 -149 -20 -149 -264 0 -284 53 -7
84 1 121 33 l31 25 35 -26 c19 -15 35 -29 35 -32 0 -8 -62 -58 -94 -75 -21
-11 -54 -17 -101 -17 -60 -1 -78 4 -122 29 -61 35 -101 95 -115 172 -20 109
53 229 159 262 60 18 82 19 140 5z m904 -16 c168 -86 184 -306 31 -416 -36
-26 -55 -32 -112 -35 -81 -5 -129 9 -177 51 -129 113 -103 325 49 401 71 35
137 35 209 -1z m287 -165 l2 -188 90 0 90 0 0 -44 0 -45 -52 -6 c-29 -3 -91
-5 -138 -3 l-85 3 -3 225 c-1 123 0 231 3 238 3 9 19 12 47 10 l43 -3 3 -187z
m425 185 l117 -5 0 -44 0 -44 -110 0 -110 0 0 -45 0 -44 98 -3 97 -3 3 -42 3
-43 -100 0 -101 0 0 -50 0 -49 108 -3 107 -3 0 -45 0 -45 -60 -3 c-33 -2 -101
-1 -151 3 l-91 7 -6 226 c-3 124 -4 229 -2 232 5 8 65 9 198 3z m347 -136 l99
-140 3 139 3 139 45 0 45 0 3 -232 2 -233 -24 -6 c-14 -3 -33 -3 -43 0 -10 4
-61 68 -113 144 l-95 137 -5 -140 c-5 -138 -5 -140 -29 -143 -12 -2 -34 -1
-47 2 l-24 6 0 229 c0 125 3 231 6 234 4 3 22 6 41 5 33 -1 40 -9 133 -141z
m555 115 c85 -43 125 -113 125 -214 0 -72 -23 -129 -66 -170 -47 -44 -98 -59
-219 -65 l-112 -6 -6 48 c-10 66 -9 420 1 429 4 5 59 6 122 4 90 -4 124 -9
155 -26z m-3361 -138 c42 -93 72 -150 77 -142 3 7 35 77 69 156 l62 142 54 0
54 0 0 -235 0 -235 -45 0 c-25 0 -46 1 -46 3 -1 1 -4 59 -8 129 l-6 127 -56
-127 c-52 -118 -58 -127 -85 -130 -28 -3 -31 1 -89 130 l-60 133 -5 -130 -5
-130 -45 0 -45 0 -3 233 -2 232 57 0 58 0 69 -156z m489 17 c4 -77 4 -183 0
-235 l-6 -96 -44 0 -43 0 -1 158 c0 86 -2 185 -6 220 -7 84 -3 92 50 92 l44 0
6 -139z m795 119 c45 -27 72 -76 72 -128 0 -51 -24 -108 -51 -123 -27 -14 -24
-25 26 -109 25 -41 45 -78 45 -82 0 -5 -20 -8 -44 -8 -49 0 -63 13 -120 113
-25 44 -31 48 -59 45 l-32 -3 -5 -75 -5 -75 -45 0 -45 0 -3 233 -2 232 117 0
c100 0 123 -3 151 -20z m3029 -202 c-1 -40 -3 -10 -3 67 0 77 1 110 3 73 2
-37 2 -100 0 -140z m-4110 -60 c-3 -8 -6 -5 -6 6 -1 11 2 17 5 13 3 -3 4 -12
1 -19z m-253 -17 c11 -21 12 -31 3 -40 -20 -20 -27 -12 -27 29 0 47 5 50 24
11z m-937 -433 c-1 -68 -3 -15 -3 117 0 132 2 187 3 123 2 -64 2 -172 0 -240z
m10 -345 c-2 -21 -4 -4 -4 37 0 41 2 58 4 38 2 -21 2 -55 0 -75z m4446 -40
c-123 -2 -323 -2 -445 0 -123 1 -23 2 222 2 245 0 345 -1 223 -2z m-1906 -10
c-158 -2 -416 -2 -575 0 -158 1 -28 2 288 2 316 0 446 -1 287 -2z m-2499 -10
c-10 -2 -26 -2 -35 0 -10 3 -2 5 17 5 19 0 27 -2 18 -5z m80 0 c-10 -2 -28 -2
-40 0 -13 2 -5 4 17 4 22 1 32 -1 23 -4z m605 0 c-90 -2 -236 -2 -325 0 -90 1
-17 3 162 3 179 0 252 -2 163 -3z"/>
<path d="M6264 8636 c-111 -25 -186 -80 -218 -158 -24 -57 -20 -153 8 -213 50
-107 89 -124 395 -171 51 -8 81 -44 81 -97 0 -32 -6 -49 -22 -65 -48 -44 -178
-54 -233 -18 -16 11 -30 35 -40 71 l-16 55 -57 0 c-100 0 -126 -29 -102 -114
19 -68 71 -130 137 -162 52 -26 68 -29 153 -28 111 1 213 31 279 83 112 89
116 294 8 386 -50 43 -104 59 -261 79 -142 18 -166 33 -166 103 0 51 21 77 77
92 102 29 173 2 192 -73 12 -51 36 -64 93 -52 76 15 95 56 64 131 -55 131
-201 190 -372 151z"/>
<path d="M5862 8575 c-40 -6 -76 -15 -82 -21 -14 -14 -100 -161 -160 -274 -33
-61 -57 -95 -61 -88 -4 7 -13 74 -20 148 -16 176 -17 180 -71 180 -59 0 -116
-17 -126 -38 -5 -10 -1 -86 9 -182 10 -91 30 -273 44 -405 14 -131 31 -245 38
-253 9 -11 27 -13 72 -9 73 7 92 13 100 35 3 8 1 69 -6 134 l-11 118 27 47
c25 42 29 45 40 29 7 -9 66 -83 132 -163 l118 -145 75 5 c88 7 106 13 115 34
7 20 -8 42 -184 260 -79 98 -144 183 -144 188 0 6 48 90 107 189 133 223 132
233 -12 211z"/>
<path d="M6328 8473 c7 -3 16 -2 19 1 4 3 -2 6 -13 5 -11 0 -14 -3 -6 -6z"/>
<path d="M4905 8459 c-77 -11 -174 -59 -216 -106 -17 -20 -46 -67 -63 -103
-28 -59 -31 -76 -34 -180 -6 -187 37 -319 134 -417 41 -41 64 -55 119 -72 234
-72 455 59 481 285 10 83 -17 99 -122 73 -52 -13 -51 -12 -64 -80 -14 -70 -33
-97 -87 -121 -57 -25 -120 -18 -163 19 -131 110 -147 429 -27 515 22 16 50 24
92 26 55 4 64 1 94 -24 18 -15 45 -52 59 -83 l27 -56 56 0 c111 1 135 49 77
157 -71 133 -197 191 -363 167z"/>
<path d="M4173 8360 c-92 -13 -101 -18 -112 -52 -10 -31 -80 -411 -132 -715
-27 -161 -25 -168 60 -157 66 8 111 28 111 50 0 9 7 55 16 103 l16 87 126 16
c70 10 130 14 133 10 4 -4 21 -41 39 -82 52 -124 52 -124 124 -116 80 9 110
28 101 64 -3 15 -62 155 -130 312 -68 157 -140 325 -160 374 -19 49 -40 95
-46 103 -12 14 -62 15 -146 3z m101 -364 c31 -77 55 -140 53 -141 -6 -6 -161
-25 -165 -21 -2 3 6 75 19 161 12 85 26 152 30 148 4 -5 32 -71 63 -147z"/>
<path d="M4206 8058 c-6 -18 -23 -112 -31 -171 l-7 -49 29 6 c15 3 49 8 74 12
l46 6 -42 101 c-40 96 -60 124 -69 95z"/>
<path d="M3840 8313 c-14 -2 -131 -17 -260 -33 -330 -43 -327 -41 -314 -126
10 -71 26 -79 140 -64 52 6 98 9 102 6 6 -7 81 -594 82 -643 0 -52 22 -65 94
-57 89 10 96 15 95 77 0 29 -17 187 -37 352 l-38 300 21 6 c12 4 52 10 91 13
98 11 114 23 114 90 0 39 -5 57 -18 69 -19 17 -25 18 -72 10z"/>
<path d="M2863 8205 c-72 -20 -122 -47 -160 -87 -89 -92 -83 -260 13 -348 59
-55 88 -66 225 -85 158 -22 178 -30 196 -72 30 -72 -15 -135 -106 -148 -111
-15 -169 15 -190 100 -8 33 -17 46 -34 50 -26 7 -115 -11 -134 -27 -29 -24 -3
-129 47 -190 41 -50 125 -89 202 -95 158 -13 329 64 385 171 9 17 18 64 21
104 6 90 -14 147 -68 196 -46 42 -107 61 -245 76 -107 13 -151 26 -175 55 -20
25 -19 89 4 113 22 26 106 46 158 39 49 -7 75 -29 90 -80 14 -46 34 -56 96
-47 58 9 84 38 75 83 -16 87 -87 168 -166 192 -62 19 -165 18 -234 0z"/>
<path d="M6642 6606 c-125 -31 -192 -109 -200 -232 -4 -51 0 -72 21 -117 42
-93 106 -127 298 -163 132 -24 177 -71 144 -151 -23 -54 -115 -83 -199 -62
-56 14 -86 45 -101 106 l-13 48 -65 -1 c-75 -1 -97 -13 -97 -55 0 -46 38 -133
72 -167 61 -58 119 -77 243 -77 132 0 193 18 258 76 58 51 82 111 81 204 -1
135 -67 196 -252 231 -177 33 -222 60 -222 131 0 65 67 102 167 90 61 -7 95
-34 112 -89 12 -40 18 -47 46 -52 18 -4 50 -1 71 6 l39 13 0 56 c-1 159 -192
256 -403 205z"/>
<path d="M6173 6552 c-21 -26 -81 -110 -133 -187 l-95 -139 -7 173 c-5 126
-10 176 -20 182 -20 13 -132 10 -150 -3 -17 -13 -16 -72 4 -751 2 -65 7 -90
18 -97 25 -16 123 -12 148 6 23 16 23 19 16 132 l-6 117 33 42 c19 23 39 41
44 39 6 -1 59 -75 120 -164 l109 -162 87 0 c67 0 90 4 100 16 16 19 26 2 -153
263 -76 110 -138 203 -138 206 0 3 54 82 120 174 80 113 118 174 114 185 -5
13 -22 16 -90 16 l-84 0 -37 -48z"/>
<path d="M5272 6579 c-187 -33 -292 -188 -292 -429 0 -195 67 -336 192 -406
50 -28 59 -29 173 -29 136 0 181 15 249 81 59 58 117 195 100 238 -8 20 -132
23 -156 4 -9 -7 -21 -37 -28 -65 -24 -103 -122 -149 -217 -102 -85 42 -126
139 -127 294 -1 114 21 181 73 228 91 82 222 42 261 -80 20 -62 27 -66 99 -60
102 8 112 39 51 164 -36 72 -92 125 -158 147 -59 21 -154 27 -220 15z"/>
<path d="M4572 6563 c-61 -3 -74 -7 -86 -26 -8 -12 -65 -201 -126 -419 -130
-458 -129 -432 -18 -426 37 2 73 9 79 15 6 6 23 53 38 104 l27 94 135 3 135 3
28 -88 c16 -49 33 -94 38 -100 7 -8 37 -13 83 -13 109 0 110 3 51 169 -27 75
-89 255 -138 401 -49 146 -97 271 -106 278 -9 6 -27 11 -41 10 -14 -1 -59 -4
-99 -5z m83 -343 c24 -80 45 -151 45 -157 0 -10 -25 -13 -91 -13 -81 0 -90 2
-85 18 3 9 19 71 35 137 40 156 43 166 47 162 2 -1 24 -68 49 -147z"/>
<path d="M3987 6549 c-198 -5 -293 -11 -303 -20 -17 -14 -19 -110 -2 -127 8
-8 49 -12 120 -12 l108 0 1 -57 c0 -32 4 -185 8 -341 7 -235 11 -286 23 -299
13 -13 28 -14 89 -7 l74 9 0 100 c0 55 -2 213 -5 350 l-5 250 112 3 c132 3
139 9 128 93 -6 46 -27 72 -52 67 -4 0 -138 -5 -296 -9z"/>
<path d="M3250 6537 c-147 -35 -210 -110 -210 -252 0 -49 6 -74 28 -116 24
-47 37 -58 92 -87 40 -20 106 -40 170 -53 152 -31 180 -49 180 -121 0 -69 -57
-108 -157 -108 -99 0 -132 28 -168 144 -5 16 -13 18 -71 14 -79 -5 -99 -22
-89 -78 17 -94 67 -158 155 -198 47 -22 69 -26 155 -26 117 0 187 18 256 69
79 57 112 158 89 269 -21 102 -87 148 -268 185 -135 27 -168 42 -188 84 -31
65 13 125 99 134 85 10 138 -22 167 -100 l16 -42 56 0 c65 0 88 15 88 59 0 41
-40 124 -76 158 -68 63 -209 92 -324 65z"/>
<path d="M3072 4981 c-60 -21 -114 -67 -145 -126 -30 -56 -30 -173 1 -232 42
-80 113 -120 290 -165 105 -26 142 -56 142 -113 0 -94 -145 -137 -249 -74 -33
20 -44 39 -57 104 l-9 40 -71 3 c-93 4 -108 -9 -99 -82 19 -141 106 -221 271
-246 77 -12 175 -2 238 24 21 9 43 13 49 9 6 -3 7 -1 3 5 -8 13 28 35 39 24 5
-4 5 -2 1 5 -3 6 -2 14 4 18 6 4 21 28 34 53 54 106 40 240 -30 302 -45 39
-98 62 -217 96 -104 29 -162 56 -171 79 -8 21 -8 69 0 90 17 43 120 59 194 29
41 -17 70 -55 70 -93 0 -35 27 -51 85 -51 46 0 56 4 74 27 27 33 21 76 -20
149 -15 29 -26 55 -23 58 2 3 1 4 -2 2 -3 -3 -24 9 -47 25 -22 16 -63 36 -90
44 -70 21 -199 19 -265 -4z"/>
<path d="M3573 4959 c-18 -19 -17 -123 2 -139 8 -6 59 -14 115 -17 l100 -6 0
-41 c0 -23 -5 -175 -10 -339 -7 -208 -7 -303 0 -317 9 -17 21 -20 90 -20 65 0
81 3 89 18 5 9 12 145 15 302 4 157 9 309 12 338 l5 52 100 0 c133 0 139 4
139 85 0 52 -3 66 -19 74 -10 6 -153 13 -322 17 -245 5 -306 4 -316 -7z"/>
<path d="M4398 4933 c-16 -19 -278 -794 -278 -823 0 -9 5 -21 12 -28 17 -17
152 -16 166 1 6 7 24 53 39 102 l29 90 95 3 c52 1 112 -1 134 -6 l40 -8 23
-89 c31 -119 37 -125 127 -125 103 0 106 6 74 129 -35 131 -165 600 -190 684
-24 82 -33 87 -163 87 -76 0 -96 -3 -108 -17z m155 -350 c21 -82 37 -150 37
-153 0 -5 -162 0 -168 5 -6 5 81 295 88 295 3 0 23 -66 43 -147z"/>
<path d="M4440 4481 c0 -5 -3 -16 -6 -25 -4 -11 0 -16 14 -16 14 0 19 6 17 18
-2 9 -4 20 -4 25 -1 10 -21 9 -21 -2z"/>
<path d="M5122 4911 c-176 -61 -275 -272 -244 -524 26 -209 133 -329 319 -357
78 -12 160 -2 216 27 15 7 33 11 39 7 7 -4 8 -3 4 4 -6 11 27 36 36 27 2 -3
18 9 34 27 16 17 23 28 15 23 -9 -5 -12 -3 -9 6 3 8 11 13 17 11 7 -1 10 2 6
7 -3 6 1 21 9 33 20 31 44 120 38 138 -3 8 -10 18 -16 22 -13 9 -128 10 -150
2 -9 -3 -23 -30 -31 -58 -27 -91 -93 -130 -190 -112 -51 10 -101 64 -120 131
-21 72 -21 228 -1 299 27 94 89 146 172 146 61 0 104 -27 130 -84 13 -28 24
-59 24 -68 0 -10 9 -27 20 -38 26 -26 114 -28 149 -4 21 15 23 23 19 70 -10
114 -98 224 -211 264 -74 26 -201 27 -275 1z m408 -774 c0 -2 -10 -12 -22 -23
l-23 -19 19 23 c18 21 26 27 26 19z"/>
<path d="M5690 4900 c-13 -8 -16 -73 -23 -431 -6 -296 -5 -425 3 -433 6 -6 41
-12 78 -14 103 -5 106 -1 111 152 2 99 6 128 19 138 13 11 14 11 7 -1 -5 -10
-4 -12 4 -7 6 4 9 11 6 16 -6 9 41 68 47 60 3 -3 45 -76 94 -163 119 -212 114
-207 212 -207 95 0 113 12 94 62 -6 17 -9 36 -5 42 3 6 2 8 -2 3 -11 -9 -66
74 -60 91 3 7 1 11 -4 7 -13 -7 -74 102 -65 116 4 7 3 9 -3 6 -13 -8 -127 179
-120 196 3 7 62 81 131 166 69 85 126 158 126 162 0 4 -7 15 -16 23 -11 12
-36 16 -97 16 -45 0 -87 -4 -93 -8 -6 -4 -69 -81 -140 -172 l-129 -165 3 161
c4 195 4 194 -96 194 -37 0 -74 -5 -82 -10z"/>
<path d="M6539 4882 c-109 -44 -159 -118 -159 -234 0 -38 7 -85 15 -104 8 -20
12 -41 8 -47 -3 -5 -1 -7 4 -4 6 4 19 -3 29 -14 39 -44 112 -75 288 -124 73
-20 106 -51 106 -100 0 -70 -43 -105 -127 -105 -108 0 -165 36 -177 110 -10
63 -19 70 -92 70 -83 0 -98 -15 -91 -85 3 -28 13 -69 23 -91 26 -56 27 -61 11
-41 -9 11 -18 14 -21 8 -4 -5 3 -15 14 -21 11 -6 20 -8 20 -5 0 2 20 -10 44
-29 70 -53 134 -70 256 -70 84 0 116 5 162 23 163 64 222 279 111 402 -47 52
-87 71 -220 110 -124 36 -158 51 -173 78 -17 34 -12 80 13 105 42 42 162 42
208 0 20 -18 43 -88 36 -108 -6 -14 -4 -14 71 -22 70 -8 102 12 102 63 0 91
-54 174 -144 220 -45 24 -65 27 -161 30 -89 3 -119 0 -156 -15z"/>
<path d="M6630 4719 c12 -8 9 -9 -12 -5 -31 7 -48 -14 -48 -59 0 -27 44 -80
58 -71 12 7 13 75 2 96 -9 17 4 28 50 43 8 3 -3 6 -25 6 -31 1 -37 -2 -25 -10z"/>
<path d="M3077 4324 c3 -8 9 -11 14 -8 5 3 6 -2 3 -10 -4 -9 4 -20 23 -29 38
-20 119 -31 128 -17 3 5 2 10 -4 10 -5 0 -21 11 -35 24 -14 13 -36 22 -48 22
-13 -1 -27 1 -33 4 -5 4 -20 10 -32 12 -15 4 -20 2 -16 -8z"/>
<path d="M5870 4238 c0 -28 2 -49 4 -47 8 9 13 99 5 99 -5 0 -9 -23 -9 -52z"/>
<path d="M6240 4270 c6 -11 13 -20 16 -20 2 0 0 9 -6 20 -6 11 -13 20 -16 20
-2 0 0 -9 6 -20z"/>
<path d="M6541 4254 c-1 -24 34 -74 52 -74 6 0 2 7 -11 15 -12 9 -26 30 -31
48 -6 23 -9 26 -10 11z"/>
<path d="M6285 4201 c-3 -5 -2 -12 3 -15 5 -3 9 1 9 9 0 17 -3 19 -12 6z"/>
<path d="M6312 4176 c1 -14 7 -22 12 -19 5 4 7 0 4 -9 -4 -8 -1 -15 6 -15 6 0
12 9 12 19 0 10 -7 18 -14 18 -8 0 -12 6 -8 15 3 8 1 15 -4 15 -5 0 -9 -11 -8
-24z"/>
<path d="M4846 2629 c-78 -61 -74 -199 6 -249 26 -17 45 -20 87 -17 47 3 59 9
86 39 59 64 54 160 -10 217 -30 26 -44 31 -89 31 -39 0 -60 -6 -80 -21z"/>
<path d="M6460 2510 l0 -140 60 0 c106 0 150 42 150 140 0 95 -50 140 -154
140 l-56 0 0 -140z"/>
<path d="M4400 2585 l0 -65 58 0 c68 0 82 11 82 61 0 49 -27 69 -92 69 l-48 0
0 -65z"/>
<path d="M2241 8454 c0 -11 3 -14 6 -6 3 7 2 16 -1 19 -3 4 -6 -2 -5 -13z"/>
<path d="M2253 7915 c0 -22 2 -30 4 -17 2 12 2 30 0 40 -3 9 -5 -1 -4 -23z"/>
<path d="M2261 7824 c1 -27 5 -62 9 -79 5 -18 6 1 3 45 -7 86 -14 107 -12 34z"/>
<path d="M2283 7620 c0 -25 2 -35 4 -22 2 12 2 32 0 45 -2 12 -4 2 -4 -23z"/>
<path d="M2233 7525 c-1 -49 2 -110 6 -135 l7 -45 8 58 c4 32 5 61 2 65 -3 3
-7 -3 -8 -14 -1 -10 -5 22 -8 71 l-6 90 -1 -90z"/>
<path d="M2291 7494 c0 -11 3 -14 6 -6 3 7 2 16 -1 19 -3 4 -6 -2 -5 -13z"/>
<path d="M2243 6915 c0 -27 2 -38 4 -22 2 15 2 37 0 50 -2 12 -4 0 -4 -28z"/>
<path d="M2244 6640 c0 -124 2 -174 3 -112 2 61 2 163 0 225 -1 61 -3 11 -3
-113z"/>
<path d="M2243 6320 c0 -25 2 -35 4 -22 2 12 2 32 0 45 -2 12 -4 2 -4 -23z"/>
<path d="M2241 3594 c0 -11 3 -14 6 -6 3 7 2 16 -1 19 -3 4 -6 -2 -5 -13z"/>
<path d="M1906 3253 c-6 -14 -5 -15 5 -6 7 7 10 15 7 18 -3 3 -9 -2 -12 -12z"/>
<path d="M2102 3050 c0 -19 2 -27 5 -17 2 9 2 25 0 35 -3 9 -5 1 -5 -18z"/>
<path d="M1906 3005 c4 -8 8 -15 10 -15 2 0 4 7 4 15 0 8 -4 15 -10 15 -5 0
-7 -7 -4 -15z"/>
<path d="M1909 2913 c0 -5 -3 -20 -5 -35 -2 -14 0 -29 6 -33 6 -4 10 9 10 34
0 23 -2 41 -5 41 -3 0 -5 -3 -6 -7z"/>
<path d="M2105 2155 c0 -259 1 -366 2 -238 2 127 2 339 0 470 -1 131 -2 27 -2
-232z"/>
<path d="M2243 1905 c0 -38 2 -53 4 -32 2 20 2 52 0 70 -2 17 -4 1 -4 -38z"/>
<path d="M2243 1695 c0 -22 2 -30 4 -17 2 12 2 30 0 40 -3 9 -5 -1 -4 -23z"/>
<path d="M2101 1634 c0 -11 3 -14 6 -6 3 7 2 16 -1 19 -3 4 -6 -2 -5 -13z"/>
<path d="M2089 1583 c-13 -16 -12 -17 4 -4 9 7 17 15 17 17 0 8 -8 3 -21 -13z"/>
<path d="M2009 1543 c-13 -16 -12 -17 4 -4 9 7 17 15 17 17 0 8 -8 3 -21 -13z"/>
<path d="M1904 1537 c-3 -9 -10 -17 -16 -17 -5 0 -6 4 -3 10 3 6 -1 7 -9 4
-18 -7 -21 -41 -6 -64 6 -10 10 -11 10 -2 0 6 6 12 13 12 16 0 97 43 97 52 0
4 -11 3 -25 -2 -20 -8 -23 -7 -19 8 5 14 4 15 -5 2 -10 -13 -12 -13 -20 0 -9
12 -11 12 -17 -3z m26 -21 c0 -2 -7 -9 -15 -16 -13 -11 -14 -10 -9 4 5 14 24
23 24 12z"/>
</g>
</svg>
